<?xml version="1.0" encoding="UTF-8" standalone="no"?>
<!DOCTYPE svg PUBLIC "-//W3C//DTD SVG 1.1//EN" "http://www.w3.org/Graphics/SVG/1.1/DTD/svg11.dtd">
<svg version="1.1" xmlns="http://www.w3.org/2000/svg" xmlns:xlink="http://www.w3.org/1999/xlink" preserveAspectRatio="xMidYMid meet" viewBox="0 0 601 100" width="601" height="100"><defs><path d="M51.9 96.12L595.22 96.12L595.22 3.88L51.9 3.88L51.9 96.12Z" id="a2GDBUW51H"></path><path d="M91.62 50C91.62 71.92 73.82 89.72 51.9 89.72C29.97 89.72 12.18 71.92 12.18 50C12.18 28.08 29.97 10.28 51.9 10.28C73.82 10.28 91.62 28.08 91.62 50Z" id="a1nhrDku0h"></path><path d="M98.02 50C98.02 75.45 77.35 96.12 51.9 96.12C26.44 96.12 5.78 75.45 5.78 50C5.78 24.55 26.44 3.88 51.9 3.88C77.35 3.88 98.02 24.55 98.02 50Z" id="a85K2wJnq"></path><path d="M88.69 50C88.69 70.31 72.2 86.79 51.9 86.79C31.59 86.79 15.11 70.31 15.11 50C15.11 29.69 31.59 13.21 51.9 13.21C72.2 13.21 88.69 29.69 88.69 50Z" id="i5ujt5ejtj"></path><path d="M58.59 50C58.59 53.69 55.59 56.69 51.9 56.69C48.2 56.69 45.2 53.69 45.2 50C45.2 46.31 48.2 43.31 51.9 43.31C55.59 43.31 58.59 46.31 58.59 50Z" id="aK2aF4zGw"></path><path d="M58.59 26.48C58.59 30.17 55.59 33.17 51.9 33.17C48.2 33.17 45.2 30.17 45.2 26.48C45.2 22.78 48.2 19.78 51.9 19.78C55.59 19.78 58.59 22.78 58.59 26.48Z" id="c513LDAcyt"></path><path d="M58.59 72.93C58.59 76.62 55.59 79.62 51.9 79.62C48.2 79.62 45.2 76.62 45.2 72.93C45.2 69.23 48.2 66.23 51.9 66.23C55.59 66.23 58.59 69.23 58.59 72.93Z" id="c9a731zTc"></path></defs><g><g><g><use xlink:href="#a2GDBUW51H" opacity="1" fill="#002b36" fill-opacity="1"></use><g><use xlink:href="#a2GDBUW51H" opacity="1" fill-opacity="0" stroke="#000000" stroke-width="0" stroke-opacity="1"></use></g></g><g><use xlink:href="#a1nhrDku0h" opacity="1" fill="#fdf6e3" fill-opacity="1"></use></g><g><use xlink:href="#a85K2wJnq" opacity="1" fill="#002b36" fill-opacity="1"></use></g><g><use xlink:href="#i5ujt5ejtj" opacity="1" fill="#fdf6e3" fill-opacity="1"></use></g><g><use xlink:href="#aK2aF4zGw" opacity="1" fill="#002b36" fill-opacity="1"></use></g><g><use xlink:href="#c513LDAcyt" opacity="1" fill="#002b36" fill-opacity="1"></use></g><g><use xlink:href="#c9a731zTc" opacity="1" fill="#002b36" fill-opacity="1"></use></g></g></g></svg>