<?xml version="1.0" encoding="UTF-8" standalone="no"?>
<!DOCTYPE svg PUBLIC "-//W3C//DTD SVG 1.1//EN" "http://www.w3.org/Graphics/SVG/1.1/DTD/svg11.dtd">
<svg version="1.1" xmlns="http://www.w3.org/2000/svg" xmlns:xlink="http://www.w3.org/1999/xlink" preserveAspectRatio="xMidYMid meet" viewBox="0 0 640 640" width="640" height="640"><defs><path d="M207.07 492.87L580.75 492.87L580.75 175.88L207.07 175.88L207.07 492.87Z" id="db5BExUAJ"></path><path d="M365.56 334.38C365.56 421.85 294.54 492.87 207.07 492.87C119.59 492.87 48.57 421.85 48.57 334.38C48.57 246.9 119.59 175.88 207.07 175.88C294.54 175.88 365.56 246.9 365.56 334.38Z" id="a11PNycFB"></path><path d="M343.58 334.38C343.58 409.72 282.41 470.89 207.07 470.89C131.73 470.89 70.56 409.72 70.56 334.38C70.56 259.03 131.73 197.86 207.07 197.86C282.41 197.86 343.58 259.03 343.58 334.38Z" id="b1ODtdLGWy"></path><path d="M230.08 253.53C230.08 266.23 219.77 276.54 207.07 276.54C194.37 276.54 184.06 266.23 184.06 253.53C184.06 240.84 194.37 230.53 207.07 230.53C219.77 230.53 230.08 240.84 230.08 253.53Z" id="dNRuMUKfO"></path><path d="M230.08 334.38C230.08 347.07 219.77 357.38 207.07 357.38C194.37 357.38 184.06 347.07 184.06 334.38C184.06 321.68 194.37 311.37 207.07 311.37C219.77 311.37 230.08 321.68 230.08 334.38Z" id="a2UvAL674D"></path><path d="M230.08 413.17C230.08 425.87 219.77 436.18 207.07 436.18C194.37 436.18 184.06 425.87 184.06 413.17C184.06 400.47 194.37 390.17 207.07 390.17C219.77 390.17 230.08 400.47 230.08 413.17Z" id="ftgD1FDlf"></path></defs><g><g><g><use xlink:href="#db5BExUAJ" opacity="1" fill="#002b36" fill-opacity="1"></use><g><use xlink:href="#db5BExUAJ" opacity="1" fill-opacity="0" stroke="#000000" stroke-width="0" stroke-opacity="1"></use></g></g><g><use xlink:href="#a11PNycFB" opacity="1" fill="#002b36" fill-opacity="1"></use></g><g><use xlink:href="#b1ODtdLGWy" opacity="1" fill="#fdf6e3" fill-opacity="1"></use></g><g><use xlink:href="#dNRuMUKfO" opacity="1" fill="#002b36" fill-opacity="1"></use></g><g><use xlink:href="#a2UvAL674D" opacity="1" fill="#002b36" fill-opacity="1"></use></g><g><use xlink:href="#ftgD1FDlf" opacity="1" fill="#002b36" fill-opacity="1"></use></g></g></g></svg>